<?xml version="1.0" standalone="no"?>
<!DOCTYPE svg PUBLIC "-//W3C//DTD SVG 20010904//EN"
 "http://www.w3.org/TR/2001/REC-SVG-20010904/DTD/svg10.dtd">
<svg version="1.0" xmlns="http://www.w3.org/2000/svg"
 width="700.000000pt" height="700.000000pt" viewBox="0 0 700.000000 700.000000"
 preserveAspectRatio="xMidYMid meet">
<metadata>
Created by potrace 1.14, written by Peter Selinger 2001-2017
</metadata>
<g transform="translate(0.000000,700.000000) scale(0.100000,-0.100000)"
fill="#000000" stroke="none">
<path d="M4894 6993 l-111 -4 -6 -62 c-4 -34 -12 -154 -18 -267 l-12 -205
-130 -158 c-72 -86 -132 -156 -134 -154 -2 3 3 157 12 343 8 186 15 360 15
385 l0 47 -115 -33 c-64 -18 -118 -35 -121 -38 -7 -7 -23 -676 -17 -710 8 -43
-33 -94 -180 -222 -109 -96 -133 -113 -135 -96 -2 11 11 210 28 442 17 232 29
423 26 426 -8 8 -476 -261 -476 -275 0 -7 61 -199 136 -425 l135 -413 -115
-195 c-64 -106 -116 -192 -117 -189 0 3 -8 163 -17 355 l-17 350 -156 3 -156
2 4 -47 c2 -27 15 -214 28 -418 l24 -370 -25 -945 c-14 -520 -28 -951 -30
-957 -5 -18 -184 -17 -339 2 -709 83 -1387 -68 -1994 -446 -288 -179 -603
-457 -809 -714 l-72 -90 0 -957 0 -958 3500 0 3500 0 0 958 0 957 -71 90
c-102 128 -384 405 -519 509 -480 371 -957 572 -1540 652 -153 21 -570 24
-700 4 -47 -7 -196 -14 -331 -17 l-247 -5 -6 49 c-8 74 -61 1381 -55 1387 2 3
167 0 365 -6 199 -6 368 -9 376 -5 14 5 168 284 168 303 0 16 -210 195 -220
189 -5 -3 -56 -61 -112 -128 -56 -67 -104 -126 -108 -130 -6 -7 -341 51 -402
69 -25 7 258 403 288 404 12 0 194 -25 404 -55 211 -31 384 -54 386 -52 5 5
27 187 23 191 -2 2 -152 39 -334 81 -181 43 -333 80 -338 84 -9 9 211 271 227
271 7 0 185 -52 396 -115 211 -63 388 -115 395 -115 8 0 10 27 7 93 -2 50 -5
93 -6 94 -2 2 -106 26 -232 53 -126 28 -232 52 -237 53 -10 3 171 292 182 292
5 0 81 -67 168 -150 87 -82 168 -158 179 -167 20 -17 23 -15 132 122 62 77
112 142 112 145 0 3 -80 44 -177 91 l-178 86 238 71 239 72 -285 5 -284 5 124
275 c67 150 123 278 123 282 0 4 -33 7 -72 6 -40 -1 -123 -4 -184 -5z"/>
</g>
</svg>
